G04 #@! TF.FileFunction,Copper,L2,Bot,Signal*
%FSLAX46Y46*%
G04 Gerber Fmt 4.6, Leading zero omitted, Abs format (unit mm)*
G04 Created by KiCad (PCBNEW (2015-01-16 BZR 5376)-product) date 23-May-17 3:49:53 PM*
%MOMM*%
G01*
G04 APERTURE LIST*
%ADD10C,0.100000*%
%ADD11C,0.150000*%
%ADD12C,1.500000*%
%ADD13O,2.500000X2.200000*%
%ADD14R,1.600000X1.600000*%
%ADD15C,1.600000*%
%ADD16R,3.500000X3.500000*%
%ADD17C,2.000000*%
%ADD18R,1.700000X1.700000*%
%ADD19O,1.700000X1.700000*%
%ADD20C,1.010000*%
%ADD21C,1.210000*%
%ADD22C,1.110000*%
%ADD23C,0.635000*%
%ADD24C,0.508000*%
%ADD25C,0.381000*%
%ADD26C,0.762000*%
%ADD27C,1.016000*%
%ADD28C,0.304800*%
G04 APERTURE END LIST*
D10*
D11*
X65000000Y-112500000D02*
X65000000Y-82500000D01*
X155000000Y-77500000D02*
X155000000Y-87500000D01*
X65000000Y-122500000D02*
X65000000Y-112500000D01*
X65000000Y-72500000D02*
X65000000Y-82500000D01*
X158000000Y-102500000D02*
X155000000Y-102500000D01*
X158000000Y-92500000D02*
X158000000Y-102500000D01*
X155000000Y-92500000D02*
X158000000Y-92500000D01*
X150000000Y-67500000D02*
X70000000Y-67500000D01*
X155000000Y-77500000D02*
X155000000Y-72500000D01*
X155000000Y-122500000D02*
X155000000Y-102500000D01*
X70000000Y-127500000D02*
X150000000Y-127500000D01*
X155000000Y-72500000D02*
G75*
G03X150000000Y-67500000I-5000000J0D01*
G01*
X150000000Y-127500000D02*
G75*
G03X155000000Y-122500000I0J5000000D01*
G01*
X65000000Y-122500000D02*
G75*
G03X70000000Y-127500000I5000000J0D01*
G01*
X70000000Y-67500000D02*
G75*
G03X65000000Y-72500000I0J-5000000D01*
G01*
X155000000Y-92500000D02*
X155000000Y-87500000D01*
D12*
X153162000Y-99961000D03*
D13*
X155812000Y-101161000D03*
D12*
X153162000Y-95111000D03*
D13*
X155812000Y-93911000D03*
D14*
X90424000Y-104521000D03*
D15*
X85424000Y-104521000D03*
D16*
X79248000Y-109220000D03*
X73248000Y-109220000D03*
X76248000Y-104520000D03*
D17*
X96520000Y-104140000D03*
X99060000Y-104140000D03*
X101600000Y-104140000D03*
X104140000Y-104140000D03*
X106680000Y-104140000D03*
X109220000Y-104140000D03*
X111760000Y-104140000D03*
X114300000Y-104140000D03*
X116840000Y-104140000D03*
X119380000Y-104140000D03*
X121920000Y-104140000D03*
X96520000Y-106680000D03*
X99060000Y-106680000D03*
X101600000Y-106680000D03*
X104140000Y-106680000D03*
X106680000Y-106680000D03*
X109220000Y-106680000D03*
X111760000Y-106680000D03*
X114300000Y-106680000D03*
X116840000Y-106680000D03*
X119380000Y-106680000D03*
X121920000Y-106680000D03*
X96520000Y-109220000D03*
X99060000Y-109220000D03*
X101600000Y-109220000D03*
X104140000Y-109220000D03*
X106680000Y-109220000D03*
X109220000Y-109220000D03*
X111760000Y-109220000D03*
X114300000Y-109220000D03*
X116840000Y-109220000D03*
X119380000Y-109220000D03*
X121920000Y-109220000D03*
X96520000Y-111760000D03*
X99060000Y-111760000D03*
X101600000Y-111760000D03*
X104140000Y-111760000D03*
X106680000Y-111760000D03*
X109220000Y-111760000D03*
X111760000Y-111760000D03*
X114300000Y-111760000D03*
X116840000Y-111760000D03*
X119380000Y-111760000D03*
X121920000Y-111760000D03*
X96520000Y-114300000D03*
X99060000Y-114300000D03*
X101600000Y-114300000D03*
X104140000Y-114300000D03*
X106680000Y-114300000D03*
X109220000Y-114300000D03*
X111760000Y-114300000D03*
X114300000Y-114300000D03*
X116840000Y-114300000D03*
X119380000Y-114300000D03*
X121920000Y-114300000D03*
X96520000Y-116840000D03*
X99060000Y-116840000D03*
X101600000Y-116840000D03*
X104140000Y-116840000D03*
X106680000Y-116840000D03*
X109220000Y-116840000D03*
X111760000Y-116840000D03*
X114300000Y-116840000D03*
X116840000Y-116840000D03*
X119380000Y-116840000D03*
X121920000Y-116840000D03*
X96520000Y-119380000D03*
X99060000Y-119380000D03*
X101600000Y-119380000D03*
X104140000Y-119380000D03*
X106680000Y-119380000D03*
X109220000Y-119380000D03*
X111760000Y-119380000D03*
X114300000Y-119380000D03*
X116840000Y-119380000D03*
X119380000Y-119380000D03*
X121920000Y-119380000D03*
X96520000Y-121920000D03*
X99060000Y-121920000D03*
X101600000Y-121920000D03*
X104140000Y-121920000D03*
X106680000Y-121920000D03*
X109220000Y-121920000D03*
X111760000Y-121920000D03*
X114300000Y-121920000D03*
X116840000Y-121920000D03*
X119380000Y-121920000D03*
X121920000Y-121920000D03*
X96520000Y-124460000D03*
X99060000Y-124460000D03*
X101600000Y-124460000D03*
X104140000Y-124460000D03*
X106680000Y-124460000D03*
X109220000Y-124460000D03*
X111760000Y-124460000D03*
X114300000Y-124460000D03*
X116840000Y-124460000D03*
X119380000Y-124460000D03*
X121920000Y-124460000D03*
D18*
X81280000Y-85090000D03*
D19*
X81280000Y-82550000D03*
X81280000Y-80010000D03*
D18*
X66675000Y-85090000D03*
D19*
X66675000Y-82550000D03*
X66675000Y-80010000D03*
D20*
X147320000Y-90678000D03*
X142367000Y-92964000D03*
X132588000Y-74803000D03*
X115443000Y-78359000D03*
X146558000Y-87376000D03*
X142240000Y-87757000D03*
X146812000Y-103378000D03*
X146685000Y-98044000D03*
X99187000Y-95631000D03*
X106680000Y-95885000D03*
X129159000Y-76962000D03*
X134239000Y-75311000D03*
X97790000Y-78105000D03*
X99568000Y-75057000D03*
D21*
X78486000Y-91694000D03*
D22*
X130302000Y-102489000D03*
D20*
X139446000Y-89154000D03*
X135509000Y-79121000D03*
D21*
X86614000Y-86995000D03*
X89154000Y-81280000D03*
D20*
X150622000Y-99695000D03*
X151003000Y-95123000D03*
X147193000Y-99695000D03*
X148336000Y-101854000D03*
X104267000Y-81026000D03*
X100965000Y-70104000D03*
X144780000Y-104775000D03*
X135382000Y-99949000D03*
X131572000Y-98425000D03*
X109855000Y-79629000D03*
X135128000Y-98298000D03*
X150749000Y-104140000D03*
X143129000Y-107188000D03*
X153924000Y-110363000D03*
X129159000Y-83820000D03*
X140208000Y-107696000D03*
X132080000Y-80010000D03*
X141732000Y-108077000D03*
X132207000Y-82296000D03*
X140716000Y-97282000D03*
X147828000Y-92964000D03*
D22*
X128016000Y-88646000D03*
X127254000Y-96139000D03*
D23*
X147320000Y-90678000D02*
X145034000Y-92964000D01*
X145034000Y-92964000D02*
X142367000Y-92964000D01*
D24*
X132207000Y-75184000D02*
X132588000Y-74803000D01*
D23*
X124206000Y-78486000D02*
X127508000Y-75184000D01*
X115570000Y-78486000D02*
X124206000Y-78486000D01*
D24*
X115443000Y-78359000D02*
X115570000Y-78486000D01*
D23*
X127508000Y-75184000D02*
X132207000Y-75184000D01*
X146177000Y-87757000D02*
X142240000Y-87757000D01*
D25*
X146558000Y-87376000D02*
X146177000Y-87757000D01*
D24*
X146812000Y-103378000D02*
X146050000Y-102616000D01*
X146050000Y-102616000D02*
X146050000Y-98679000D01*
X146050000Y-98679000D02*
X146685000Y-98044000D01*
X106426000Y-95631000D02*
X99187000Y-95631000D01*
X106680000Y-95885000D02*
X106426000Y-95631000D01*
D26*
X132588000Y-76962000D02*
X134239000Y-75311000D01*
X129159000Y-76962000D02*
X132588000Y-76962000D01*
D24*
X97790000Y-78105000D02*
X98425000Y-77470000D01*
X98425000Y-77470000D02*
X98425000Y-76200000D01*
X98425000Y-76200000D02*
X99568000Y-75057000D01*
D26*
X73248000Y-107520000D02*
X76248000Y-104520000D01*
D27*
X73248000Y-107520000D02*
X76248000Y-104520000D01*
X73248000Y-107520000D02*
X76248000Y-104520000D01*
X66675000Y-80010000D02*
X81280000Y-80010000D01*
X84328000Y-97536000D02*
X81000000Y-94208000D01*
X81000000Y-94208000D02*
X78486000Y-91694000D01*
X95123000Y-78105000D02*
X83185000Y-78105000D01*
X83185000Y-78105000D02*
X81280000Y-80010000D01*
X97790000Y-78105000D02*
X95123000Y-78105000D01*
D24*
X123698000Y-95885000D02*
X106680000Y-95885000D01*
X130302000Y-102489000D02*
X123698000Y-95885000D01*
D27*
X85424000Y-98632000D02*
X84328000Y-97536000D01*
X85424000Y-104521000D02*
X85424000Y-98632000D01*
D25*
X139446000Y-89154000D02*
X139700000Y-88900000D01*
D23*
X109855000Y-78232000D02*
X105410000Y-82677000D01*
X111125000Y-78232000D02*
X109855000Y-78232000D01*
X113284000Y-80391000D02*
X111125000Y-78232000D01*
X127508000Y-80391000D02*
X113284000Y-80391000D01*
X129667000Y-78232000D02*
X127508000Y-80391000D01*
X134620000Y-78232000D02*
X129667000Y-78232000D01*
X135509000Y-79121000D02*
X134620000Y-78232000D01*
X105410000Y-82677000D02*
X92710000Y-82677000D01*
X139446000Y-87249000D02*
X135509000Y-83312000D01*
X135509000Y-83312000D02*
X135509000Y-79121000D01*
X139446000Y-89154000D02*
X139446000Y-87249000D01*
D27*
X81280000Y-85090000D02*
X66675000Y-85090000D01*
X89535000Y-96266000D02*
X81280000Y-88011000D01*
X81280000Y-88011000D02*
X81280000Y-85090000D01*
D23*
X84709000Y-85090000D02*
X86614000Y-86995000D01*
X89154000Y-81280000D02*
X90551000Y-82677000D01*
X90551000Y-82677000D02*
X92583000Y-82677000D01*
X81280000Y-85090000D02*
X84709000Y-85090000D01*
D27*
X90424000Y-97155000D02*
X89535000Y-96266000D01*
X90424000Y-104521000D02*
X90424000Y-97155000D01*
D28*
X150622000Y-99695000D02*
X151003000Y-99314000D01*
D25*
X151003000Y-99314000D02*
X151003000Y-95123000D01*
D28*
X147193000Y-99695000D02*
X148336000Y-100838000D01*
X148336000Y-100838000D02*
X148336000Y-101854000D01*
D25*
X104267000Y-81026000D02*
X103632000Y-80391000D01*
X103632000Y-80391000D02*
X103632000Y-72771000D01*
X103632000Y-72771000D02*
X100965000Y-70104000D01*
D24*
X144780000Y-104775000D02*
X139954000Y-99949000D01*
X139954000Y-99949000D02*
X135382000Y-99949000D01*
X131572000Y-83312000D02*
X129794000Y-81534000D01*
X131572000Y-98425000D02*
X131572000Y-83312000D01*
X111760000Y-81534000D02*
X109855000Y-79629000D01*
X129794000Y-81534000D02*
X111760000Y-81534000D01*
X140335000Y-98298000D02*
X135128000Y-98298000D01*
X146812000Y-104775000D02*
X140335000Y-98298000D01*
X150114000Y-104775000D02*
X146812000Y-104775000D01*
X150749000Y-104140000D02*
X150114000Y-104775000D01*
D28*
X143129000Y-107188000D02*
X142875000Y-107442000D01*
X142875000Y-107442000D02*
X142875000Y-109728000D01*
X142875000Y-109728000D02*
X144145000Y-110998000D01*
X144145000Y-110998000D02*
X153289000Y-110998000D01*
X153289000Y-110998000D02*
X153924000Y-110363000D01*
D24*
X86106000Y-83820000D02*
X84826000Y-82540000D01*
X129159000Y-83820000D02*
X127381000Y-83820000D01*
X127381000Y-83820000D02*
X86106000Y-83820000D01*
D26*
X80990000Y-82550000D02*
X81000000Y-82540000D01*
D27*
X66675000Y-82550000D02*
X81280000Y-82550000D01*
D24*
X84836000Y-82550000D02*
X86106000Y-83820000D01*
X81280000Y-82550000D02*
X84836000Y-82550000D01*
D28*
X140208000Y-107696000D02*
X133477000Y-100965000D01*
X133477000Y-100965000D02*
X133477000Y-81407000D01*
X133477000Y-81407000D02*
X132080000Y-80010000D01*
X141732000Y-108077000D02*
X140843000Y-108966000D01*
X140843000Y-108966000D02*
X139827000Y-108966000D01*
X139827000Y-108966000D02*
X132588000Y-101727000D01*
X132588000Y-101727000D02*
X132588000Y-82677000D01*
X132588000Y-82677000D02*
X132207000Y-82296000D01*
D25*
X140716000Y-97282000D02*
X141859000Y-96139000D01*
X141859000Y-96139000D02*
X144653000Y-96139000D01*
X144653000Y-96139000D02*
X147828000Y-92964000D01*
D24*
X128016000Y-88646000D02*
X129286000Y-89916000D01*
X129286000Y-89916000D02*
X129286000Y-94107000D01*
X129286000Y-94107000D02*
X127254000Y-96139000D01*
M02*
