G04 #@! TF.FileFunction,Copper,L1,Top,Signal*
%FSLAX46Y46*%
G04 Gerber Fmt 4.6, Leading zero omitted, Abs format (unit mm)*
G04 Created by KiCad (PCBNEW (2015-01-16 BZR 5376)-product) date 23-May-17 3:49:53 PM*
%MOMM*%
G01*
G04 APERTURE LIST*
%ADD10C,0.100000*%
%ADD11C,0.150000*%
%ADD12R,1.600000X1.000000*%
%ADD13R,0.750000X0.800000*%
%ADD14R,0.800000X0.750000*%
%ADD15R,1.600000X0.400000*%
%ADD16C,1.500000*%
%ADD17O,2.500000X2.200000*%
%ADD18R,2.000000X0.900000*%
%ADD19R,0.900000X2.000000*%
%ADD20R,6.000000X6.000000*%
%ADD21R,0.900000X0.500000*%
%ADD22R,0.500000X0.900000*%
%ADD23R,1.000760X1.000760*%
%ADD24R,0.650000X1.060000*%
%ADD25R,1.900000X1.400000*%
%ADD26R,0.797560X0.797560*%
%ADD27R,0.800100X0.800100*%
%ADD28R,1.000000X1.600000*%
%ADD29R,1.000760X0.231140*%
%ADD30R,0.231140X1.000760*%
%ADD31R,1.501140X1.501140*%
%ADD32C,0.299720*%
%ADD33R,1.600000X1.600000*%
%ADD34C,1.600000*%
%ADD35R,3.500000X3.500000*%
%ADD36R,0.910000X1.220000*%
%ADD37C,2.000000*%
%ADD38R,1.700000X1.700000*%
%ADD39O,1.700000X1.700000*%
%ADD40C,1.010000*%
%ADD41C,1.210000*%
%ADD42C,1.110000*%
%ADD43C,0.635000*%
%ADD44C,0.381000*%
%ADD45C,0.508000*%
%ADD46C,0.762000*%
%ADD47C,0.304800*%
%ADD48C,1.016000*%
G04 APERTURE END LIST*
D10*
D11*
X65000000Y-112500000D02*
X65000000Y-82500000D01*
X155000000Y-77500000D02*
X155000000Y-87500000D01*
X65000000Y-122500000D02*
X65000000Y-112500000D01*
X65000000Y-72500000D02*
X65000000Y-82500000D01*
X158000000Y-102500000D02*
X155000000Y-102500000D01*
X158000000Y-92500000D02*
X158000000Y-102500000D01*
X155000000Y-92500000D02*
X158000000Y-92500000D01*
X150000000Y-67500000D02*
X70000000Y-67500000D01*
X155000000Y-77500000D02*
X155000000Y-72500000D01*
X155000000Y-122500000D02*
X155000000Y-102500000D01*
X70000000Y-127500000D02*
X150000000Y-127500000D01*
X155000000Y-72500000D02*
G75*
G03X150000000Y-67500000I-5000000J0D01*
G01*
X150000000Y-127500000D02*
G75*
G03X155000000Y-122500000I0J5000000D01*
G01*
X65000000Y-122500000D02*
G75*
G03X70000000Y-127500000I5000000J0D01*
G01*
X70000000Y-67500000D02*
G75*
G03X65000000Y-72500000I0J-5000000D01*
G01*
X155000000Y-92500000D02*
X155000000Y-87500000D01*
D12*
X101600000Y-79224000D03*
X101600000Y-76224000D03*
D13*
X104648000Y-78474000D03*
X104648000Y-76974000D03*
D14*
X139053000Y-90678000D03*
X137553000Y-90678000D03*
X103112000Y-83058000D03*
X101612000Y-83058000D03*
X103112000Y-90170000D03*
X101612000Y-90170000D03*
D13*
X140716000Y-94476000D03*
X140716000Y-92976000D03*
X144018000Y-97016000D03*
X144018000Y-95516000D03*
D15*
X153062000Y-98836000D03*
X153062000Y-98186000D03*
X153062000Y-97536000D03*
X153062000Y-96886000D03*
X153062000Y-96236000D03*
D16*
X153162000Y-99961000D03*
D17*
X155812000Y-101161000D03*
D16*
X153162000Y-95111000D03*
D17*
X155812000Y-93911000D03*
D18*
X107586000Y-77046000D03*
X107586000Y-78316000D03*
X107586000Y-79586000D03*
X107586000Y-80856000D03*
X107586000Y-82126000D03*
X107586000Y-83396000D03*
X107586000Y-84666000D03*
X107586000Y-85936000D03*
X107586000Y-87206000D03*
X107586000Y-88476000D03*
X107586000Y-89746000D03*
X107586000Y-91016000D03*
X107586000Y-92286000D03*
X107586000Y-93556000D03*
X125586000Y-77046000D03*
X125586000Y-93556000D03*
X125586000Y-92286000D03*
X125586000Y-91016000D03*
X125586000Y-89746000D03*
X125586000Y-88476000D03*
X125586000Y-87206000D03*
X125586000Y-85936000D03*
X125586000Y-84666000D03*
X125586000Y-83396000D03*
X125586000Y-82126000D03*
X125586000Y-80856000D03*
X125586000Y-79586000D03*
X125586000Y-78316000D03*
D19*
X110871000Y-95046000D03*
X112156000Y-95046000D03*
X113411000Y-95046000D03*
X114681000Y-95046000D03*
X115951000Y-95046000D03*
X117221000Y-95046000D03*
X118491000Y-95046000D03*
X119761000Y-95046000D03*
X121031000Y-95046000D03*
X122301000Y-95046000D03*
D20*
X116886000Y-84746000D03*
D21*
X96901000Y-70854000D03*
X96901000Y-69354000D03*
D22*
X127520000Y-98806000D03*
X129020000Y-98806000D03*
D21*
X129032000Y-95008000D03*
X129032000Y-96508000D03*
D22*
X150229000Y-90297000D03*
X148729000Y-90297000D03*
X151880000Y-92329000D03*
X150380000Y-92329000D03*
D21*
X128016000Y-70854000D03*
X128016000Y-69354000D03*
X144780000Y-107938000D03*
X144780000Y-106438000D03*
D22*
X150864000Y-109728000D03*
X149364000Y-109728000D03*
D23*
X98892000Y-69204000D03*
X103292000Y-71004000D03*
X98892000Y-71004000D03*
X103292000Y-69204000D03*
X129880000Y-69204000D03*
X134280000Y-71004000D03*
X129880000Y-71004000D03*
X134280000Y-69204000D03*
D24*
X138745000Y-92753000D03*
X137795000Y-92753000D03*
X136845000Y-92753000D03*
X136845000Y-94953000D03*
X138745000Y-94953000D03*
D25*
X103124000Y-85414000D03*
X103124000Y-87814000D03*
D26*
X129019300Y-101219000D03*
X127520700Y-101219000D03*
X153403300Y-90170000D03*
X151904700Y-90170000D03*
D27*
X146878000Y-107934760D03*
X148778000Y-107934760D03*
X147828000Y-105935780D03*
X151196000Y-107934760D03*
X153096000Y-107934760D03*
X152146000Y-105935780D03*
D13*
X142494000Y-95516000D03*
X142494000Y-97016000D03*
D28*
X146582000Y-94996000D03*
X149582000Y-94996000D03*
D21*
X120904000Y-99326000D03*
X120904000Y-100826000D03*
X112014000Y-99326000D03*
X112014000Y-100826000D03*
D22*
X129044000Y-80010000D03*
X130544000Y-80010000D03*
X129044000Y-82296000D03*
X130544000Y-82296000D03*
D29*
X143469360Y-100352860D03*
X143469360Y-100853240D03*
X143469360Y-101353620D03*
X143469360Y-101854000D03*
X143469360Y-102354380D03*
X143469360Y-102854760D03*
X143469360Y-103355140D03*
D30*
X142471140Y-104353360D03*
X141970760Y-104353360D03*
X141470380Y-104353360D03*
X140970000Y-104353360D03*
X140469620Y-104353360D03*
X139969240Y-104353360D03*
X139468860Y-104353360D03*
D29*
X138470640Y-103355140D03*
X138470640Y-102854760D03*
X138470640Y-102354380D03*
X138470640Y-101854000D03*
X138470640Y-101353620D03*
X138470640Y-100853240D03*
X138470640Y-100352860D03*
D30*
X139468860Y-99354640D03*
X139969240Y-99354640D03*
X140469620Y-99354640D03*
X140970000Y-99354640D03*
X141470380Y-99354640D03*
X141970760Y-99354640D03*
X142471140Y-99354640D03*
D31*
X140970000Y-101854000D03*
D32*
X143220440Y-104104440D03*
D33*
X90424000Y-104521000D03*
D34*
X85424000Y-104521000D03*
D21*
X129794000Y-85102000D03*
X129794000Y-86602000D03*
D35*
X79248000Y-109220000D03*
X73248000Y-109220000D03*
X76248000Y-104520000D03*
D36*
X140097000Y-84836000D03*
X143367000Y-84836000D03*
D37*
X96520000Y-104140000D03*
X99060000Y-104140000D03*
X101600000Y-104140000D03*
X104140000Y-104140000D03*
X106680000Y-104140000D03*
X109220000Y-104140000D03*
X111760000Y-104140000D03*
X114300000Y-104140000D03*
X116840000Y-104140000D03*
X119380000Y-104140000D03*
X121920000Y-104140000D03*
X96520000Y-106680000D03*
X99060000Y-106680000D03*
X101600000Y-106680000D03*
X104140000Y-106680000D03*
X106680000Y-106680000D03*
X109220000Y-106680000D03*
X111760000Y-106680000D03*
X114300000Y-106680000D03*
X116840000Y-106680000D03*
X119380000Y-106680000D03*
X121920000Y-106680000D03*
X96520000Y-109220000D03*
X99060000Y-109220000D03*
X101600000Y-109220000D03*
X104140000Y-109220000D03*
X106680000Y-109220000D03*
X109220000Y-109220000D03*
X111760000Y-109220000D03*
X114300000Y-109220000D03*
X116840000Y-109220000D03*
X119380000Y-109220000D03*
X121920000Y-109220000D03*
X96520000Y-111760000D03*
X99060000Y-111760000D03*
X101600000Y-111760000D03*
X104140000Y-111760000D03*
X106680000Y-111760000D03*
X109220000Y-111760000D03*
X111760000Y-111760000D03*
X114300000Y-111760000D03*
X116840000Y-111760000D03*
X119380000Y-111760000D03*
X121920000Y-111760000D03*
X96520000Y-114300000D03*
X99060000Y-114300000D03*
X101600000Y-114300000D03*
X104140000Y-114300000D03*
X106680000Y-114300000D03*
X109220000Y-114300000D03*
X111760000Y-114300000D03*
X114300000Y-114300000D03*
X116840000Y-114300000D03*
X119380000Y-114300000D03*
X121920000Y-114300000D03*
X96520000Y-116840000D03*
X99060000Y-116840000D03*
X101600000Y-116840000D03*
X104140000Y-116840000D03*
X106680000Y-116840000D03*
X109220000Y-116840000D03*
X111760000Y-116840000D03*
X114300000Y-116840000D03*
X116840000Y-116840000D03*
X119380000Y-116840000D03*
X121920000Y-116840000D03*
X96520000Y-119380000D03*
X99060000Y-119380000D03*
X101600000Y-119380000D03*
X104140000Y-119380000D03*
X106680000Y-119380000D03*
X109220000Y-119380000D03*
X111760000Y-119380000D03*
X114300000Y-119380000D03*
X116840000Y-119380000D03*
X119380000Y-119380000D03*
X121920000Y-119380000D03*
X96520000Y-121920000D03*
X99060000Y-121920000D03*
X101600000Y-121920000D03*
X104140000Y-121920000D03*
X106680000Y-121920000D03*
X109220000Y-121920000D03*
X111760000Y-121920000D03*
X114300000Y-121920000D03*
X116840000Y-121920000D03*
X119380000Y-121920000D03*
X121920000Y-121920000D03*
X96520000Y-124460000D03*
X99060000Y-124460000D03*
X101600000Y-124460000D03*
X104140000Y-124460000D03*
X106680000Y-124460000D03*
X109220000Y-124460000D03*
X111760000Y-124460000D03*
X114300000Y-124460000D03*
X116840000Y-124460000D03*
X119380000Y-124460000D03*
X121920000Y-124460000D03*
D38*
X81280000Y-85090000D03*
D39*
X81280000Y-82550000D03*
X81280000Y-80010000D03*
D38*
X66675000Y-85090000D03*
D39*
X66675000Y-82550000D03*
X66675000Y-80010000D03*
D40*
X147320000Y-90678000D03*
X142367000Y-92964000D03*
X132588000Y-74803000D03*
X115443000Y-78359000D03*
X146558000Y-87376000D03*
X142240000Y-87757000D03*
X146812000Y-103378000D03*
X146685000Y-98044000D03*
X99187000Y-95631000D03*
X106680000Y-95885000D03*
X129159000Y-76962000D03*
X134239000Y-75311000D03*
X97790000Y-78105000D03*
X99568000Y-75057000D03*
D41*
X78486000Y-91694000D03*
D42*
X130302000Y-102489000D03*
D40*
X139446000Y-89154000D03*
X135509000Y-79121000D03*
D41*
X86614000Y-86995000D03*
X89154000Y-81280000D03*
D40*
X150622000Y-99695000D03*
X151003000Y-95123000D03*
X147193000Y-99695000D03*
X148336000Y-101854000D03*
X104267000Y-81026000D03*
X100965000Y-70104000D03*
X144780000Y-104775000D03*
X135382000Y-99949000D03*
X131572000Y-98425000D03*
X109855000Y-79629000D03*
X135128000Y-98298000D03*
X150749000Y-104140000D03*
X143129000Y-107188000D03*
X153924000Y-110363000D03*
X129159000Y-83820000D03*
X140208000Y-107696000D03*
X132080000Y-80010000D03*
X141732000Y-108077000D03*
X132207000Y-82296000D03*
X140716000Y-97282000D03*
X147828000Y-92964000D03*
D42*
X128016000Y-88646000D03*
X127254000Y-96139000D03*
D43*
X147701000Y-90297000D02*
X147320000Y-90678000D01*
D44*
X142367000Y-92964000D02*
X142113000Y-93218000D01*
D43*
X142113000Y-93218000D02*
X142113000Y-94107000D01*
X142113000Y-94107000D02*
X141744000Y-94476000D01*
X141744000Y-94476000D02*
X140716000Y-94476000D01*
X148729000Y-90297000D02*
X147701000Y-90297000D01*
X139997000Y-94953000D02*
X138745000Y-94953000D01*
X140474000Y-94476000D02*
X139997000Y-94953000D01*
D44*
X140716000Y-94476000D02*
X140474000Y-94476000D01*
D43*
X130683000Y-74549000D02*
X128016000Y-71882000D01*
X128016000Y-71882000D02*
X128016000Y-70854000D01*
X134366000Y-78232000D02*
X130683000Y-74549000D01*
X134366000Y-95504000D02*
X134366000Y-78232000D01*
X136017000Y-97155000D02*
X134366000Y-95504000D01*
X138176000Y-97155000D02*
X136017000Y-97155000D01*
X138745000Y-96586000D02*
X138176000Y-97155000D01*
X138745000Y-94953000D02*
X138745000Y-96586000D01*
D44*
X104806000Y-78316000D02*
X104648000Y-78474000D01*
X107586000Y-78316000D02*
X104806000Y-78316000D01*
D45*
X103771000Y-78474000D02*
X103021000Y-79224000D01*
X103021000Y-79224000D02*
X101600000Y-79224000D01*
X104648000Y-78474000D02*
X103771000Y-78474000D01*
D43*
X96901000Y-75184000D02*
X96901000Y-70854000D01*
X100941000Y-79224000D02*
X96901000Y-75184000D01*
D44*
X101600000Y-79224000D02*
X100941000Y-79224000D01*
D45*
X132588000Y-74803000D02*
X132334000Y-74549000D01*
D43*
X132334000Y-74549000D02*
X130683000Y-74549000D01*
X107586000Y-78316000D02*
X115400000Y-78316000D01*
D45*
X115400000Y-78316000D02*
X115443000Y-78359000D01*
X145669000Y-96774000D02*
X144411000Y-95516000D01*
D44*
X144411000Y-95516000D02*
X144018000Y-95516000D01*
X153062000Y-96236000D02*
X151414000Y-96236000D01*
X151414000Y-96236000D02*
X150876000Y-96774000D01*
D45*
X148844000Y-96774000D02*
X145669000Y-96774000D01*
X150876000Y-96774000D02*
X148844000Y-96774000D01*
X144018000Y-95516000D02*
X142494000Y-95516000D01*
X140716000Y-88773000D02*
X139827000Y-87884000D01*
X139446000Y-87884000D02*
X138684000Y-87884000D01*
D44*
X139827000Y-87884000D02*
X139446000Y-87884000D01*
D45*
X138684000Y-87884000D02*
X137553000Y-89015000D01*
X137553000Y-89015000D02*
X137553000Y-90678000D01*
X140716000Y-92976000D02*
X140716000Y-88773000D01*
D44*
X137795000Y-91694000D02*
X137553000Y-91452000D01*
X137553000Y-91452000D02*
X137553000Y-90678000D01*
X137795000Y-92753000D02*
X137795000Y-91694000D01*
D46*
X153403300Y-88633300D02*
X152146000Y-87376000D01*
X152146000Y-87376000D02*
X146558000Y-87376000D01*
D44*
X142240000Y-87757000D02*
X142113000Y-87884000D01*
D45*
X142113000Y-87884000D02*
X139446000Y-87884000D01*
D46*
X153403300Y-90170000D02*
X153403300Y-88633300D01*
D47*
X145788380Y-102354380D02*
X146812000Y-103378000D01*
D45*
X146685000Y-98044000D02*
X147955000Y-96774000D01*
D47*
X147955000Y-96774000D02*
X148844000Y-96774000D01*
X143469360Y-102354380D02*
X145788380Y-102354380D01*
D44*
X134280000Y-72685000D02*
X134280000Y-71004000D01*
D46*
X146558000Y-84963000D02*
X134280000Y-72685000D01*
X146558000Y-87376000D02*
X146558000Y-84963000D01*
D45*
X144018000Y-91821000D02*
X142240000Y-90043000D01*
X142240000Y-90043000D02*
X142240000Y-87757000D01*
X144018000Y-95516000D02*
X144018000Y-91821000D01*
D46*
X96786700Y-92062300D02*
X98679000Y-90170000D01*
X98679000Y-90170000D02*
X101612000Y-90170000D01*
X96786700Y-93472000D02*
X96786700Y-92062300D01*
X99314000Y-88011000D02*
X99314000Y-84455000D01*
X99314000Y-84455000D02*
X100711000Y-83058000D01*
D44*
X100711000Y-83058000D02*
X101612000Y-83058000D01*
D46*
X101473000Y-90170000D02*
X99314000Y-88011000D01*
D44*
X101612000Y-90170000D02*
X101473000Y-90170000D01*
X104720000Y-77046000D02*
X104648000Y-76974000D01*
X107586000Y-77046000D02*
X104720000Y-77046000D01*
D45*
X103644000Y-76974000D02*
X102894000Y-76224000D01*
X102894000Y-76224000D02*
X101600000Y-76224000D01*
X104648000Y-76974000D02*
X103644000Y-76974000D01*
X101600000Y-74803000D02*
X103292000Y-73111000D01*
X103292000Y-73111000D02*
X103292000Y-71004000D01*
X101600000Y-76224000D02*
X101600000Y-74803000D01*
D46*
X121836000Y-77046000D02*
X125586000Y-77046000D01*
X116886000Y-81996000D02*
X121836000Y-77046000D01*
D45*
X116886000Y-84746000D02*
X116886000Y-81996000D01*
X116886000Y-86314000D02*
X116886000Y-84746000D01*
D46*
X110871000Y-92329000D02*
X116886000Y-86314000D01*
X110871000Y-95046000D02*
X110871000Y-92329000D01*
D45*
X99187000Y-95631000D02*
X97663000Y-95631000D01*
D46*
X110490000Y-95885000D02*
X106680000Y-95885000D01*
D45*
X110871000Y-95504000D02*
X110490000Y-95885000D01*
X110871000Y-95046000D02*
X110871000Y-95504000D01*
D46*
X97663000Y-95631000D02*
X99187000Y-95631000D01*
X96786700Y-94754700D02*
X97663000Y-95631000D01*
X96786700Y-93472000D02*
X96786700Y-94754700D01*
D45*
X129075000Y-77046000D02*
X129159000Y-76962000D01*
X134239000Y-75311000D02*
X134280000Y-75270000D01*
D46*
X134280000Y-75270000D02*
X134280000Y-71004000D01*
X125586000Y-77046000D02*
X129075000Y-77046000D01*
D45*
X99568000Y-75057000D02*
X100735000Y-76224000D01*
X100735000Y-76224000D02*
X101600000Y-76224000D01*
D46*
X97790000Y-79502000D02*
X97790000Y-78105000D01*
X101346000Y-83058000D02*
X97790000Y-79502000D01*
D45*
X101612000Y-83058000D02*
X101346000Y-83058000D01*
D48*
X79375000Y-80010000D02*
X81280000Y-80010000D01*
X76962000Y-82423000D02*
X79375000Y-80010000D01*
X76962000Y-90170000D02*
X76962000Y-82423000D01*
X78486000Y-91694000D02*
X76962000Y-90170000D01*
X73248000Y-107520000D02*
X76248000Y-104520000D01*
X73248000Y-109220000D02*
X73248000Y-107520000D01*
X76294000Y-104474000D02*
X76248000Y-104520000D01*
D45*
X129032000Y-101219000D02*
X130302000Y-102489000D01*
X129019300Y-101219000D02*
X129032000Y-101219000D01*
D48*
X85423000Y-104520000D02*
X85424000Y-104521000D01*
X76248000Y-104520000D02*
X85423000Y-104520000D01*
D44*
X139053000Y-91960000D02*
X139053000Y-90678000D01*
X138745000Y-92268000D02*
X139053000Y-91960000D01*
X138745000Y-92753000D02*
X138745000Y-92268000D01*
X139053000Y-89547000D02*
X139446000Y-89154000D01*
X139053000Y-90678000D02*
X139053000Y-89547000D01*
X136845000Y-92753000D02*
X136845000Y-92649000D01*
D45*
X136845000Y-92649000D02*
X135890000Y-91694000D01*
D44*
X135890000Y-88519000D02*
X135890000Y-88265000D01*
D45*
X135890000Y-91694000D02*
X135890000Y-88519000D01*
D43*
X135509000Y-82550000D02*
X135509000Y-79121000D01*
X137795000Y-84836000D02*
X135509000Y-82550000D01*
X140097000Y-84836000D02*
X137795000Y-84836000D01*
D45*
X135890000Y-86487000D02*
X137541000Y-84836000D01*
X137541000Y-84836000D02*
X140097000Y-84836000D01*
X135890000Y-88519000D02*
X135890000Y-86487000D01*
D43*
X86614000Y-86995000D02*
X89154000Y-84455000D01*
X89154000Y-84455000D02*
X89154000Y-81280000D01*
D48*
X87884000Y-109220000D02*
X90424000Y-106680000D01*
X90424000Y-106680000D02*
X90424000Y-104521000D01*
X79248000Y-109220000D02*
X87884000Y-109220000D01*
D44*
X104986000Y-85936000D02*
X104464000Y-85414000D01*
X104464000Y-85414000D02*
X103124000Y-85414000D01*
X107586000Y-85936000D02*
X104986000Y-85936000D01*
X103124000Y-83070000D02*
X103112000Y-83058000D01*
X103124000Y-85414000D02*
X103124000Y-83070000D01*
X105199000Y-87206000D02*
X104591000Y-87814000D01*
X104591000Y-87814000D02*
X103124000Y-87814000D01*
X107586000Y-87206000D02*
X105199000Y-87206000D01*
X103112000Y-87826000D02*
X103124000Y-87814000D01*
X103112000Y-90170000D02*
X103112000Y-87826000D01*
X151481000Y-98836000D02*
X150622000Y-99695000D01*
D47*
X151003000Y-95123000D02*
X150876000Y-94996000D01*
D44*
X150876000Y-94996000D02*
X149582000Y-94996000D01*
D47*
X153062000Y-98836000D02*
X151481000Y-98836000D01*
X150226000Y-98186000D02*
X147058380Y-101353620D01*
X147058380Y-101353620D02*
X143469360Y-101353620D01*
X153062000Y-98186000D02*
X150226000Y-98186000D01*
X143469360Y-101858422D02*
X143469360Y-101854000D01*
X149352000Y-97536000D02*
X147193000Y-99695000D01*
X148336000Y-101854000D02*
X148331578Y-101858422D01*
X148331578Y-101858422D02*
X143469360Y-101858422D01*
X153062000Y-97536000D02*
X149352000Y-97536000D01*
D44*
X97051000Y-69204000D02*
X96901000Y-69354000D01*
X98892000Y-69204000D02*
X97051000Y-69204000D01*
X105707000Y-79586000D02*
X104267000Y-81026000D01*
X100965000Y-70104000D02*
X100065000Y-69204000D01*
X100065000Y-69204000D02*
X98892000Y-69204000D01*
X107586000Y-79586000D02*
X105707000Y-79586000D01*
D45*
X146702780Y-105935780D02*
X145542000Y-104775000D01*
X145542000Y-104775000D02*
X144780000Y-104775000D01*
X135382000Y-99949000D02*
X132461000Y-99949000D01*
X132461000Y-99949000D02*
X131572000Y-99060000D01*
X131572000Y-99060000D02*
X131572000Y-98425000D01*
X109855000Y-79629000D02*
X109812000Y-79586000D01*
X109812000Y-79586000D02*
X107586000Y-79586000D01*
X147828000Y-105935780D02*
X146702780Y-105935780D01*
D44*
X128166000Y-69204000D02*
X128016000Y-69354000D01*
X129880000Y-69204000D02*
X128166000Y-69204000D01*
D45*
X127635000Y-73406000D02*
X127508000Y-73279000D01*
X130345000Y-93556000D02*
X133604000Y-90297000D01*
X133604000Y-90297000D02*
X133604000Y-79375000D01*
X133604000Y-79375000D02*
X127635000Y-73406000D01*
X125586000Y-93556000D02*
X130345000Y-93556000D01*
X126492000Y-72263000D02*
X127635000Y-73406000D01*
X126861000Y-69354000D02*
X126492000Y-69723000D01*
X128016000Y-69354000D02*
X126861000Y-69354000D01*
X126492000Y-72263000D02*
X126492000Y-69723000D01*
X130386000Y-93556000D02*
X125586000Y-93556000D01*
X135128000Y-98298000D02*
X130386000Y-93556000D01*
X152146000Y-105537000D02*
X150749000Y-104140000D01*
X152146000Y-105935780D02*
X152146000Y-105537000D01*
D44*
X127211000Y-82126000D02*
X127381000Y-82296000D01*
X127381000Y-82296000D02*
X129044000Y-82296000D01*
X125586000Y-82126000D02*
X127211000Y-82126000D01*
X126916000Y-80856000D02*
X127762000Y-80010000D01*
X127762000Y-80010000D02*
X129044000Y-80010000D01*
X125586000Y-80856000D02*
X126916000Y-80856000D01*
X112156000Y-98283000D02*
X112014000Y-98425000D01*
X112014000Y-98425000D02*
X112014000Y-99326000D01*
X112156000Y-95046000D02*
X112156000Y-98283000D01*
X112156000Y-96886000D02*
X111887000Y-97155000D01*
X112156000Y-95046000D02*
X112156000Y-96886000D01*
X120904000Y-95173000D02*
X121031000Y-95046000D01*
X120904000Y-99326000D02*
X120904000Y-95173000D01*
X144783240Y-107934760D02*
X144780000Y-107938000D01*
X146878000Y-107934760D02*
X144783240Y-107934760D01*
X148778000Y-109142000D02*
X149364000Y-109728000D01*
X148778000Y-107934760D02*
X148778000Y-109142000D01*
D47*
X148778000Y-108397000D02*
X147828000Y-109347000D01*
X147828000Y-109347000D02*
X145669000Y-109347000D01*
X148778000Y-107934760D02*
X148778000Y-108397000D01*
X141224000Y-109347000D02*
X141097000Y-109347000D01*
X145669000Y-109347000D02*
X141224000Y-109347000D01*
X136525000Y-107823000D02*
X130048000Y-107823000D01*
X138684000Y-107823000D02*
X136525000Y-107823000D01*
X140469620Y-106037380D02*
X138684000Y-107823000D01*
X140469620Y-104353360D02*
X140469620Y-106037380D01*
X140208000Y-109347000D02*
X138684000Y-107823000D01*
X141224000Y-109347000D02*
X140208000Y-109347000D01*
D44*
X128905000Y-107823000D02*
X122936000Y-101854000D01*
X122936000Y-101854000D02*
X115189000Y-101854000D01*
X115189000Y-101854000D02*
X114161000Y-100826000D01*
X114161000Y-100826000D02*
X112014000Y-100826000D01*
X130048000Y-107823000D02*
X128905000Y-107823000D01*
X151196000Y-109396000D02*
X150864000Y-109728000D01*
X151196000Y-107934760D02*
X151196000Y-109396000D01*
D47*
X142471140Y-105387140D02*
X143522000Y-106438000D01*
X143522000Y-106438000D02*
X144780000Y-106438000D01*
X142471140Y-104353360D02*
X142471140Y-105387140D01*
X143879000Y-106438000D02*
X143129000Y-107188000D01*
X153924000Y-110363000D02*
X153096000Y-109535000D01*
X153096000Y-109535000D02*
X153096000Y-107934760D01*
X144780000Y-106438000D02*
X143879000Y-106438000D01*
D45*
X127520000Y-101218300D02*
X127520700Y-101219000D01*
X127520000Y-98806000D02*
X127520000Y-101218300D01*
X129032000Y-98794000D02*
X129020000Y-98806000D01*
X129032000Y-96508000D02*
X129032000Y-98794000D01*
D44*
X150229000Y-92178000D02*
X150380000Y-92329000D01*
X150229000Y-90297000D02*
X150229000Y-92178000D01*
X151880000Y-90194700D02*
X151904700Y-90170000D01*
X151880000Y-92329000D02*
X151880000Y-90194700D01*
D45*
X129794000Y-84455000D02*
X129159000Y-83820000D01*
X129794000Y-85102000D02*
X129794000Y-84455000D01*
D47*
X144891760Y-100853240D02*
X145415000Y-100330000D01*
X145415000Y-100330000D02*
X145415000Y-98933000D01*
X145415000Y-98933000D02*
X144018000Y-97536000D01*
X144018000Y-97536000D02*
X144018000Y-97016000D01*
X143469360Y-100853240D02*
X144891760Y-100853240D01*
X139969240Y-105394760D02*
X138557000Y-106807000D01*
X138557000Y-106807000D02*
X135763000Y-106807000D01*
X139969240Y-104353360D02*
X139969240Y-105394760D01*
D44*
X129794000Y-106807000D02*
X123813000Y-100826000D01*
X123813000Y-100826000D02*
X120904000Y-100826000D01*
X135763000Y-106807000D02*
X129794000Y-106807000D01*
D47*
X140970000Y-106934000D02*
X140208000Y-107696000D01*
X132080000Y-80010000D02*
X130544000Y-80010000D01*
X140970000Y-104353360D02*
X140970000Y-106934000D01*
X141470380Y-107815380D02*
X141732000Y-108077000D01*
X132207000Y-82296000D02*
X130544000Y-82296000D01*
X141470380Y-104353360D02*
X141470380Y-107815380D01*
D44*
X128313000Y-91016000D02*
X129794000Y-89535000D01*
X129794000Y-89535000D02*
X129794000Y-86602000D01*
X125586000Y-91016000D02*
X128313000Y-91016000D01*
D47*
X142471140Y-97038860D02*
X142494000Y-97016000D01*
X142471140Y-99354640D02*
X142471140Y-97038860D01*
X144376140Y-100352860D02*
X144653000Y-100076000D01*
X144653000Y-100076000D02*
X144653000Y-99187000D01*
X144653000Y-99187000D02*
X143764000Y-98298000D01*
X143764000Y-98298000D02*
X143002000Y-98298000D01*
X143002000Y-98298000D02*
X142494000Y-97790000D01*
X142494000Y-97790000D02*
X142494000Y-97016000D01*
X143469360Y-100352860D02*
X144376140Y-100352860D01*
D44*
X146582000Y-94210000D02*
X146582000Y-94996000D01*
X140982000Y-97016000D02*
X140716000Y-97282000D01*
X147828000Y-92964000D02*
X146582000Y-94210000D01*
X142494000Y-97016000D02*
X140982000Y-97016000D01*
D43*
X146582000Y-94131000D02*
X145542000Y-93091000D01*
X145542000Y-90424000D02*
X145542000Y-90297000D01*
X145542000Y-93091000D02*
X145542000Y-90424000D01*
X146582000Y-94996000D02*
X146582000Y-94131000D01*
X145542000Y-89535000D02*
X144780000Y-88773000D01*
X144780000Y-88773000D02*
X144780000Y-86249000D01*
X144780000Y-86249000D02*
X143367000Y-84836000D01*
X145542000Y-90424000D02*
X145542000Y-89535000D01*
D45*
X127846000Y-88476000D02*
X128016000Y-88646000D01*
X127254000Y-96139000D02*
X128385000Y-95008000D01*
X128385000Y-95008000D02*
X129032000Y-95008000D01*
X125586000Y-88476000D02*
X127846000Y-88476000D01*
M02*
