M48
;DRILL file {kicad (2015-01-16 BZR 5376)-product} date 23-May-17 3:49:57 PM
;FORMAT={-:-/ absolute / metric / decimal}
FMAT,2
METRIC,TZ
T1C0.600
T2C0.700
T3C0.710
T4C0.720
T5C0.800
T6C1.000
%
G90
G05
M71
T1
X97.79Y-78.105
X99.187Y-95.631
X99.568Y-75.057
X100.965Y-70.104
X104.267Y-81.026
X106.68Y-95.885
X109.855Y-79.629
X115.443Y-78.359
X129.159Y-76.962
X129.159Y-83.82
X131.572Y-98.425
X132.08Y-80.01
X132.207Y-82.296
X132.588Y-74.803
X134.239Y-75.311
X135.128Y-98.298
X135.382Y-99.949
X135.509Y-79.121
X139.446Y-89.154
X140.208Y-107.696
X140.716Y-97.282
X141.732Y-108.077
X142.24Y-87.757
X142.367Y-92.964
X143.129Y-107.188
X144.78Y-104.775
X146.558Y-87.376
X146.685Y-98.044
X146.812Y-103.378
X147.193Y-99.695
X147.32Y-90.678
X147.828Y-92.964
X148.336Y-101.854
X150.622Y-99.695
X150.749Y-104.14
X151.003Y-95.123
X153.924Y-110.363
T2
X127.254Y-96.139
X128.016Y-88.646
X130.302Y-102.489
T3
X153.162Y-95.111
X153.162Y-99.961
T5
X78.486Y-91.694
X85.424Y-104.521
X86.614Y-86.995
X89.154Y-81.28
X90.424Y-104.521
T6
X66.675Y-80.01
X66.675Y-82.55
X66.675Y-85.09
X81.28Y-80.01
X81.28Y-82.55
X81.28Y-85.09
X96.52Y-104.14
X96.52Y-106.68
X96.52Y-109.22
X96.52Y-111.76
X96.52Y-114.3
X96.52Y-116.84
X96.52Y-119.38
X96.52Y-121.92
X96.52Y-124.46
X99.06Y-104.14
X99.06Y-106.68
X99.06Y-109.22
X99.06Y-111.76
X99.06Y-114.3
X99.06Y-116.84
X99.06Y-119.38
X99.06Y-121.92
X99.06Y-124.46
X101.6Y-104.14
X101.6Y-106.68
X101.6Y-109.22
X101.6Y-111.76
X101.6Y-114.3
X101.6Y-116.84
X101.6Y-119.38
X101.6Y-121.92
X101.6Y-124.46
X104.14Y-104.14
X104.14Y-106.68
X104.14Y-109.22
X104.14Y-111.76
X104.14Y-114.3
X104.14Y-116.84
X104.14Y-119.38
X104.14Y-121.92
X104.14Y-124.46
X106.68Y-104.14
X106.68Y-106.68
X106.68Y-109.22
X106.68Y-111.76
X106.68Y-114.3
X106.68Y-116.84
X106.68Y-119.38
X106.68Y-121.92
X106.68Y-124.46
X109.22Y-104.14
X109.22Y-106.68
X109.22Y-109.22
X109.22Y-111.76
X109.22Y-114.3
X109.22Y-116.84
X109.22Y-119.38
X109.22Y-121.92
X109.22Y-124.46
X111.76Y-104.14
X111.76Y-106.68
X111.76Y-109.22
X111.76Y-111.76
X111.76Y-114.3
X111.76Y-116.84
X111.76Y-119.38
X111.76Y-121.92
X111.76Y-124.46
X114.3Y-104.14
X114.3Y-106.68
X114.3Y-109.22
X114.3Y-111.76
X114.3Y-114.3
X114.3Y-116.84
X114.3Y-119.38
X114.3Y-121.92
X114.3Y-124.46
X116.84Y-104.14
X116.84Y-106.68
X116.84Y-109.22
X116.84Y-111.76
X116.84Y-114.3
X116.84Y-116.84
X116.84Y-119.38
X116.84Y-121.92
X116.84Y-124.46
X119.38Y-104.14
X119.38Y-106.68
X119.38Y-109.22
X119.38Y-111.76
X119.38Y-114.3
X119.38Y-116.84
X119.38Y-119.38
X119.38Y-121.92
X119.38Y-124.46
X121.92Y-104.14
X121.92Y-106.68
X121.92Y-109.22
X121.92Y-111.76
X121.92Y-114.3
X121.92Y-116.84
X121.92Y-119.38
X121.92Y-121.92
X121.92Y-124.46
T4
X156.027Y-93.911G85X155.597Y-93.911
G05
X156.027Y-101.161G85X155.597Y-101.161
G05
T6
X73.248Y-108.22G85X73.248Y-110.22
G05
X75.248Y-104.52G85X77.248Y-104.52
G05
X79.248Y-108.22G85X79.248Y-110.22
G05
T0
M30
